<svg version="1.1" id="Layer_1" xmlns="http://www.w3.org/2000/svg" xmlns:xlink="http://www.w3.org/1999/xlink" x="0px" y="0px"
	 width="100%" viewBox="0 0 2048 1909" enable-background="new 0 0 2048 1909" xml:space="preserve">
<path fill="#FFB903" opacity="1.000000" stroke="none" 
	d="
M2048.753906,688.703979 
	C2049.000000,703.354248 2049.000000,717.708435 2049.000000,732.531372 
	C2047.171875,735.131104 2047.943481,737.824341 2047.665527,740.208069 
	C2045.428955,759.386536 2041.286865,778.146606 2036.857056,796.930725 
	C2033.305420,811.990784 2028.152466,826.562317 2024.702393,841.632324 
	C2023.228394,848.070557 2020.380127,854.221375 2018.406494,860.577515 
	C2011.950684,881.369690 2004.129028,901.674866 1996.105347,921.878418 
	C1991.702271,932.965576 1986.797241,943.896057 1981.968750,954.831238 
	C1975.519531,969.436951 1968.628540,983.826599 1961.686768,998.179199 
	C1957.217651,1007.419250 1952.401489,1016.542358 1947.175903,1025.431152 
	C1943.140137,1032.295654 1939.491943,1039.399292 1935.644043,1046.380371 
	C1931.313110,1054.237671 1926.686523,1061.905640 1922.034058,1069.557251 
	C1914.785278,1081.479004 1907.389771,1093.317505 1899.588501,1104.888794 
	C1891.425293,1116.997192 1882.858276,1128.819092 1874.242554,1140.613525 
	C1866.504883,1151.206055 1858.427246,1161.516724 1850.222046,1171.734863 
	C1843.776001,1179.762451 1837.097290,1187.596558 1830.385254,1195.408813 
	C1820.872314,1206.481323 1811.162109,1217.376465 1800.915771,1227.747559 
	C1787.497070,1241.329834 1774.254639,1255.091797 1760.059204,1267.910645 
	C1748.477173,1278.369629 1736.860107,1288.790161 1724.784058,1298.653687 
	C1715.018799,1306.629883 1705.099854,1314.439209 1694.975708,1321.985352 
	C1688.578491,1326.753296 1682.162476,1331.495605 1675.624268,1336.056519 
	C1664.880615,1343.551392 1654.172852,1351.083008 1643.033203,1358.028320 
	C1635.005859,1363.033203 1626.982910,1368.103638 1618.902222,1373.011719 
	C1612.681519,1376.790283 1606.400513,1380.590088 1599.869873,1383.873779 
	C1590.962402,1388.352783 1582.385742,1393.474487 1573.383911,1397.747681 
	C1562.875610,1402.735962 1552.274658,1407.556274 1541.751953,1412.495728 
	C1530.155396,1417.939209 1518.311035,1422.761353 1506.515259,1427.657104 
	C1492.105957,1433.637451 1477.363159,1438.873535 1462.605347,1443.954834 
	C1442.810547,1450.770386 1422.836182,1457.163086 1402.667969,1462.715576 
	C1383.623291,1467.958862 1364.445923,1472.830688 1345.131958,1477.137207 
	C1322.906738,1482.093018 1300.584839,1486.584839 1278.154419,1490.341431 
	C1264.249512,1492.670288 1250.271240,1494.791382 1236.285767,1496.734131 
	C1235.091553,1496.900024 1233.970337,1496.604614 1232.400146,1496.510498 
	C1216.934204,1498.120850 1201.925781,1500.110596 1186.858154,1501.603882 
	C1176.927124,1502.588135 1166.982788,1503.447266 1157.036133,1504.150146 
	C1144.261963,1505.052979 1131.461060,1505.600464 1118.236572,1506.727783 
	C1111.552246,1508.113647 1105.251221,1508.332275 1098.901001,1508.339722 
	C1089.252441,1508.350952 1079.583496,1508.906128 1069.966797,1508.972656 
	C1049.352295,1509.115479 1028.716797,1508.471802 1008.098999,1507.558594 
	C995.295654,1506.991577 982.502441,1506.353394 969.745544,1505.208130 
	C962.974304,1504.600220 956.084900,1504.881470 949.012085,1502.854980 
	C910.533020,1499.033813 872.717957,1493.771973 834.768921,1486.549194 
	C832.160645,1487.004028 830.004028,1486.504028 827.925415,1486.020508 
	C811.573364,1482.216309 795.122742,1478.880981 778.805786,1474.867310 
	C763.606995,1471.128540 748.639526,1466.646484 733.723877,1462.092285 
	C720.085205,1457.927856 706.505371,1453.426758 693.067322,1448.509033 
	C675.888977,1442.222168 658.883240,1435.498535 642.118225,1428.278076 
	C631.334778,1423.633789 620.705811,1418.432739 610.130798,1413.216064 
	C602.398132,1409.401367 594.966248,1405.011597 587.193909,1401.257935 
	C579.760620,1397.667969 572.606445,1393.287842 565.519287,1388.944458 
	C557.737793,1384.175537 549.875610,1379.501709 542.315918,1374.411743 
	C535.288635,1369.680176 528.250854,1364.937012 521.356384,1359.992676 
	C507.865234,1350.317383 494.639954,1340.273315 482.180634,1329.333374 
	C473.214691,1321.460815 464.138306,1313.695923 455.799133,1305.048828 
	C448.685516,1297.672241 441.032501,1290.709961 434.083374,1283.185791 
	C425.538269,1273.933594 417.488342,1264.190063 409.633911,1254.291992 
	C398.458221,1240.208374 388.177490,1225.508545 378.648956,1210.319458 
	C370.716919,1197.675171 363.393616,1184.654175 356.720917,1171.236328 
	C351.613922,1160.966797 346.523407,1150.666016 341.868866,1140.217285 
	C334.579834,1123.854736 327.470184,1107.398071 321.245941,1090.555786 
	C317.154633,1079.485107 312.950409,1068.456665 309.157288,1057.276855 
	C303.120178,1039.483276 297.734375,1021.510681 292.764954,1003.373352 
	C286.512482,980.553406 281.254028,957.482117 277.518646,934.223206 
	C274.229797,913.744812 270.294983,893.271240 268.772644,872.524048 
	C267.118561,849.980713 265.099579,827.462708 262.624512,805.009949 
	C259.710938,778.579407 259.093842,751.917236 254.515564,725.662842 
	C250.175110,700.772217 247.685471,675.586792 242.599609,650.814758 
	C242.296234,649.337036 242.010635,647.865906 242.657501,645.992188 
	C243.310471,643.942627 244.504272,642.737549 245.826736,641.749573 
	C259.820740,631.295166 267.076447,616.318542 272.590881,600.519958 
	C280.502777,577.852783 282.811096,554.279602 282.886353,530.326233 
	C282.958099,507.482452 282.193359,484.788666 276.805359,462.484222 
	C272.045898,442.781769 265.303741,423.954987 252.446136,407.817688 
	C248.922302,403.395020 245.689102,399.022461 239.016357,400.865417 
	C238.263443,401.073364 237.396500,400.592987 236.311340,399.988098 
	C233.230103,395.360809 235.554214,390.933838 236.279938,386.701721 
	C240.211853,363.772491 243.561935,340.671600 250.234329,318.350037 
	C254.460861,304.210785 259.505127,290.284485 265.613739,276.752533 
	C270.260468,266.458954 275.127563,256.277771 280.389313,246.317673 
	C289.626099,228.833145 300.164062,212.149612 311.871918,196.152344 
	C326.439209,176.248001 342.446503,157.641083 360.019958,140.395950 
	C369.616669,130.978531 379.914886,122.312477 390.244415,113.674088 
	C400.342865,105.228920 410.859680,97.376358 421.806366,90.180603 
	C433.015167,82.812538 444.407074,75.700516 456.195618,69.185837 
	C466.100494,63.712124 476.200012,58.597919 486.344513,53.707111 
	C495.572357,49.258247 505.122955,45.291992 514.664490,41.401443 
	C528.540222,35.743629 542.681885,30.667625 556.960083,26.567005 
	C571.425171,22.412712 585.777832,17.483133 600.841492,15.214597 
	C613.481628,13.311044 625.764160,9.045025 638.488892,7.662887 
	C654.824951,5.888496 671.016724,2.754551 687.521423,2.417243 
	C692.468445,2.316140 697.477051,2.429002 702.696167,1.243994 
	C737.687561,1.000000 772.375122,1.000000 807.531372,1.000000 
	C812.035767,3.177992 816.501648,2.058606 820.703552,2.323778 
	C846.671265,3.962538 872.103577,8.416794 897.376099,14.570741 
	C917.446472,19.457930 937.001709,25.644682 956.433289,32.587502 
	C972.769470,38.424328 988.507751,45.484562 1003.993713,53.114201 
	C1018.446106,60.234570 1032.489380,68.138885 1046.036133,76.974068 
	C1056.457886,83.771042 1066.946411,90.496330 1076.905151,97.907646 
	C1087.014526,105.431023 1096.725464,113.530495 1106.317261,121.740578 
	C1114.775879,128.980881 1122.966187,136.567657 1130.767090,144.446045 
	C1141.500610,155.286133 1151.945679,166.457260 1161.710938,178.246353 
	C1169.861572,188.086288 1178.004395,197.961609 1185.403687,208.331009 
	C1193.980835,220.351334 1202.392700,232.517334 1210.254761,245.067673 
	C1217.311768,256.333313 1223.992554,267.824158 1230.068726,279.574066 
	C1238.298706,295.489288 1246.285522,311.550049 1253.075562,328.220306 
	C1258.285889,341.012512 1262.666260,354.105682 1268.053467,366.807281 
	C1269.711304,370.716156 1270.040527,374.864563 1271.194214,378.849609 
	C1272.064697,381.855988 1273.731323,383.412476 1276.789307,384.442200 
	C1295.076172,390.599884 1313.746460,395.486572 1332.196777,401.084137 
	C1351.264526,406.869019 1370.404663,412.465057 1389.540649,418.041229 
	C1407.409058,423.248047 1425.215332,428.650604 1442.987305,434.156281 
	C1464.569702,440.842377 1486.246826,447.213379 1507.755371,454.156982 
	C1527.507690,460.533630 1547.310913,466.761017 1567.083862,473.078125 
	C1584.476440,478.634796 1601.836670,484.300171 1619.247559,489.779266 
	C1637.947754,495.664032 1656.474365,502.016235 1675.078369,508.164948 
	C1690.527344,513.270935 1705.864258,518.626404 1721.127808,524.262146 
	C1738.749023,530.768372 1756.363281,537.265137 1773.873047,544.077454 
	C1788.119507,549.620117 1802.200562,555.570923 1816.468140,561.026794 
	C1833.397339,567.500366 1849.838745,575.099426 1866.474121,582.216797 
	C1877.416016,586.898193 1888.303467,591.877686 1899.064331,597.071655 
	C1908.620361,601.684143 1918.322876,606.062988 1927.751099,610.918213 
	C1942.510864,618.518860 1957.523682,625.603394 1972.083618,633.637207 
	C1987.365356,642.069275 2002.485596,650.684998 2017.165039,660.132324 
	C2025.437134,665.455994 2033.182739,671.365967 2040.676025,677.695557 
	C2044.207764,680.679077 2046.964111,684.055664 2048.753906,688.703979 
z"/>
<path fill="#000000" opacity="1.000000" stroke="none" 
	d="
M947.662354,1501.324707 
	C957.953247,1502.209351 967.936646,1502.407715 977.828308,1503.839355 
	C983.348572,1504.638306 989.039062,1504.593506 994.578003,1504.728882 
	C1005.001038,1504.983398 1015.369629,1506.561523 1025.811401,1505.999268 
	C1039.579712,1505.257690 1053.322876,1507.781372 1067.026123,1506.835449 
	C1080.786377,1505.885864 1094.520386,1506.289917 1108.261963,1505.943359 
	C1111.175659,1505.869873 1114.009888,1504.548706 1117.457031,1505.031128 
	C1121.476440,1508.026245 1120.930298,1512.455322 1120.972290,1516.160767 
	C1121.085571,1526.156250 1122.009766,1536.100220 1122.386597,1546.072388 
	C1123.165771,1566.684326 1123.604858,1587.314087 1124.537231,1607.906860 
	C1125.653442,1632.561401 1125.424194,1657.197388 1124.958496,1681.814697 
	C1124.664062,1697.385254 1123.345459,1712.985840 1121.330444,1728.524536 
	C1119.383057,1743.541748 1111.673706,1752.850586 1098.023560,1758.647217 
	C1080.494995,1766.091064 1062.417603,1771.848755 1043.989014,1776.206421 
	C1022.478149,1781.293091 1000.970337,1786.481567 979.180237,1790.418579 
	C970.109192,1792.057617 961.064758,1794.433472 952.931458,1799.448364 
	C940.323120,1807.222168 934.348999,1819.110352 931.619995,1832.931641 
	C929.441040,1843.966919 929.435669,1855.116333 932.246765,1866.123413 
	C936.567017,1883.039551 947.028259,1894.336914 963.437561,1900.252197 
	C968.452271,1902.059937 973.411804,1903.956665 978.651794,1905.089478 
	C980.820496,1905.558350 983.389404,1906.124268 983.222900,1909.634766 
	C657.226929,1910.000000 331.453827,1909.989258 5.680781,1910.119263 
	C1.481340,1910.120972 0.898372,1909.093140 0.899286,1905.182495 
	C1.006063,1448.100830 1.000000,991.019043 1.000000,533.468628 
	C3.647470,531.354431 5.192019,533.310730 6.340035,535.019653 
	C15.697535,548.949280 29.512756,557.329529 43.415329,565.874695 
	C58.490715,575.140808 74.428551,582.651245 90.558311,589.614075 
	C107.290916,596.837158 124.218857,603.682556 141.423950,609.848511 
	C154.405579,614.500916 167.386658,619.209106 180.469040,623.529114 
	C193.857300,627.950195 207.078659,632.944946 220.854614,636.238342 
	C227.613403,637.854126 234.134033,640.516724 240.720398,642.829712 
	C242.015610,643.284485 243.098694,644.020935 243.813507,645.674561 
	C246.585831,660.405640 250.203232,674.668335 251.647919,689.147827 
	C252.705719,699.749451 254.680634,710.153198 256.045166,720.670471 
	C257.491211,731.815857 259.590057,742.881470 260.844971,754.044739 
	C261.635620,761.077881 260.944122,768.213013 261.907532,775.317139 
	C263.556244,787.474426 264.945374,799.687134 265.826599,811.921021 
	C266.393433,819.790771 266.985016,827.642700 268.006226,835.461792 
	C269.876099,849.779114 269.853485,864.243164 271.820007,878.584656 
	C273.922943,893.920959 277.013245,909.131348 278.689789,924.465271 
	C280.415985,940.252930 284.924316,955.335632 287.588684,970.811768 
	C289.749481,983.362915 293.779877,995.283569 296.642365,1007.555786 
	C300.986359,1026.179565 307.324890,1044.104858 313.422150,1062.163696 
	C316.475555,1071.207153 320.325195,1079.945557 323.214417,1088.972534 
	C326.526947,1099.322021 330.995636,1109.173584 335.230469,1119.058472 
	C339.763062,1129.638306 344.413055,1140.246460 349.402954,1150.669189 
	C353.052307,1158.291748 357.753723,1165.572998 360.162048,1173.876831 
	C361.033142,1176.880249 363.523010,1179.378784 365.007721,1182.245728 
	C372.745880,1197.188354 381.725037,1211.404907 391.166473,1225.276489 
	C399.648193,1237.738037 408.787506,1249.791138 418.232300,1261.545776 
	C425.942200,1271.141235 434.171997,1280.384521 442.815491,1289.148560 
	C455.496094,1302.005737 468.420837,1314.651855 482.057892,1326.512939 
	C489.359894,1332.863892 496.667664,1339.299438 504.569458,1344.847046 
	C514.802246,1352.031616 524.609253,1359.788940 535.071045,1366.679199 
	C550.660645,1376.946777 566.481079,1386.782593 582.679321,1396.062256 
	C589.656372,1400.059082 596.836243,1403.691650 603.815002,1407.687256 
	C614.090088,1413.570557 625.200562,1418.006958 636.008240,1422.943481 
	C643.480347,1426.356567 650.957703,1429.784546 658.582703,1432.830322 
	C671.585266,1438.024048 684.667175,1443.026245 697.787476,1447.916504 
	C711.229980,1452.926758 724.909668,1457.376343 738.594971,1461.544312 
	C761.454041,1468.506348 784.672852,1474.426147 807.991821,1479.664551 
	C816.318665,1481.535156 824.754456,1483.261841 833.552979,1485.047852 
	C836.591003,1486.109253 836.725830,1488.438110 837.225952,1490.771729 
	C838.951355,1498.822021 838.165222,1507.027588 838.945618,1515.148804 
	C841.125549,1537.835449 842.915161,1560.574219 842.237183,1583.408691 
	C841.895569,1594.915405 840.199524,1606.274414 837.886047,1617.527954 
	C836.975769,1621.955811 834.053284,1625.250732 830.417236,1627.811890 
	C824.860352,1631.725952 818.720825,1633.623901 811.864563,1634.369385 
	C781.166565,1637.707275 750.371948,1637.052612 719.589050,1637.395142 
	C711.148071,1637.489014 702.653931,1638.317749 694.353394,1640.351685 
	C676.041748,1644.838989 664.514282,1656.597656 657.551208,1673.707764 
	C654.182434,1681.985840 651.713135,1690.441650 651.381104,1699.301392 
	C650.569397,1720.960938 660.242188,1737.355957 677.678406,1749.565796 
	C690.867371,1758.801270 705.622375,1763.350952 721.634094,1763.686768 
	C732.958435,1763.924194 744.308594,1764.132324 755.617065,1763.647705 
	C777.394348,1762.714355 799.205139,1762.743652 820.959717,1761.544067 
	C840.033997,1760.492310 859.211792,1759.696167 877.935852,1755.479248 
	C887.710388,1753.277954 896.898804,1749.053711 905.450378,1743.894531 
	C915.456116,1737.858154 924.498352,1730.479248 931.448914,1720.899780 
	C937.895874,1712.014404 942.303589,1702.513184 942.946350,1691.139526 
	C943.630005,1679.044556 945.628235,1667.023071 946.325073,1654.896729 
	C946.391296,1653.743164 946.629395,1652.589355 946.679749,1651.423218 
	C948.088806,1618.801514 948.418640,1586.141357 947.405273,1553.533936 
	C946.951294,1538.927856 947.907288,1524.233887 945.923889,1509.657837 
	C945.557617,1506.966309 945.130249,1503.957031 947.662354,1501.324707 
z"/>
<path fill="#000000" opacity="1.000000" stroke="none" 
	d="
M1232.691406,1495.341187 
	C1249.118530,1492.437256 1265.189575,1489.880981 1281.354736,1487.805176 
	C1292.896118,1486.322998 1304.121704,1482.358276 1315.665039,1480.921509 
	C1331.843750,1478.907715 1347.138794,1473.243774 1363.204712,1470.766724 
	C1373.197266,1469.226196 1382.754395,1465.052002 1392.680298,1462.836060 
	C1403.448853,1460.431885 1413.641602,1456.243164 1424.240967,1453.483032 
	C1439.429321,1449.527832 1454.163940,1444.293579 1468.871826,1438.978638 
	C1486.572388,1432.582397 1504.183960,1426.012451 1521.552734,1418.630859 
	C1537.878296,1411.692627 1553.943970,1404.220581 1570.042480,1396.838623 
	C1582.216797,1391.256348 1593.989746,1384.704468 1605.558716,1377.930908 
	C1612.906860,1373.628662 1620.271484,1369.288086 1627.456787,1364.650391 
	C1636.552612,1358.779419 1645.814575,1353.140869 1654.924561,1347.237671 
	C1664.096558,1341.294189 1672.643188,1334.559326 1681.612305,1328.432983 
	C1697.609985,1317.505371 1712.489136,1305.262207 1727.543091,1293.155762 
	C1739.031250,1283.916992 1750.131836,1274.223389 1760.922241,1264.260010 
	C1776.073853,1250.269531 1790.324463,1235.296753 1804.825439,1220.610718 
	C1811.160034,1214.195435 1817.424683,1207.565552 1823.094238,1200.694702 
	C1826.917236,1196.062012 1830.878418,1190.970093 1834.762085,1186.479614 
	C1842.427002,1177.617676 1849.821289,1168.545044 1857.024902,1159.332397 
	C1861.625366,1153.449097 1865.959595,1147.234863 1870.615967,1141.487061 
	C1876.012207,1134.826050 1880.934082,1127.740601 1885.969482,1120.906982 
	C1891.427002,1113.500610 1896.714844,1105.769897 1901.662842,1097.896240 
	C1908.315308,1087.310059 1915.213623,1076.838623 1921.640503,1066.151489 
	C1926.255493,1058.477417 1930.816406,1050.622803 1935.109375,1042.686279 
	C1939.780029,1034.051392 1944.806030,1025.512573 1949.398071,1016.835632 
	C1958.989990,998.711609 1968.259155,980.360474 1976.437744,961.570374 
	C1980.137329,953.071228 1983.928345,944.452393 1987.578613,935.948181 
	C1992.927856,923.485168 1997.999878,910.877930 2002.688354,898.206604 
	C2006.741455,887.252563 2011.448608,876.488098 2014.315918,865.012207 
	C2015.932739,858.541809 2019.155884,852.267273 2020.827881,845.742249 
	C2024.633423,830.889648 2030.275024,816.575562 2033.119385,801.429321 
	C2034.995605,791.438293 2038.922485,781.799744 2040.414429,771.777588 
	C2042.236938,759.535339 2045.756348,747.628479 2046.965820,735.307129 
	C2047.088013,734.062866 2047.285645,733.037048 2048.676758,732.659119 
	C2049.000000,1123.754517 2048.991943,1514.509155 2049.112061,1905.263672 
	C2049.113281,1909.344482 2048.265381,1910.110352 2044.238281,1910.108887 
	C1716.471313,1909.990723 1388.704224,1910.000000 1060.468628,1910.000000 
	C1058.875122,1906.396729 1061.611450,1906.244507 1063.842407,1905.851685 
	C1072.359497,1904.352295 1080.948608,1903.298462 1089.504639,1902.071533 
	C1110.448730,1899.068115 1130.129150,1892.449463 1149.212646,1883.411987 
	C1173.961426,1871.691650 1196.058838,1856.368774 1215.355225,1836.996948 
	C1222.426025,1829.898682 1228.604492,1822.075317 1233.261841,1813.133301 
	C1236.799805,1806.340454 1238.503296,1798.909058 1238.512451,1791.471313 
	C1238.529053,1777.980469 1240.450684,1764.529541 1239.634888,1751.075806 
	C1238.585815,1733.775146 1239.536987,1716.440063 1238.529541,1699.186401 
	C1237.406372,1679.950562 1236.546875,1660.687622 1234.895386,1641.481079 
	C1234.838257,1640.817261 1234.785278,1640.150146 1234.803101,1639.485474 
	C1235.271240,1622.004272 1234.009399,1604.552734 1233.538452,1587.097900 
	C1232.753296,1558.004395 1232.092285,1528.907227 1231.327881,1499.812988 
	C1231.286987,1498.255859 1231.293701,1496.833252 1232.691406,1495.341187 
z"/>
<path fill="#000000" opacity="1.000000" stroke="none" 
	d="
M2049.000000,688.531372 
	C2048.508057,689.950989 2047.902832,689.457214 2047.576538,688.970398 
	C2041.975342,680.611023 2033.865479,675.010864 2026.100830,668.937256 
	C2016.106323,661.119385 2005.044312,654.961914 1994.327515,648.353699 
	C1982.710693,641.190491 1970.590454,634.690369 1958.439819,628.477356 
	C1946.702026,622.475464 1934.975952,616.307800 1922.968384,610.927124 
	C1915.377930,607.525818 1908.386108,602.879150 1900.270630,600.327576 
	C1895.906372,598.955444 1891.107178,596.973450 1887.385742,593.798340 
	C1884.623657,591.441650 1881.076660,591.733582 1877.985474,590.230103 
	C1865.660278,584.234924 1853.120728,578.645447 1840.333130,573.638062 
	C1834.654785,571.414673 1829.449097,567.790039 1823.649170,566.119263 
	C1815.654297,563.816284 1808.603149,559.404907 1800.744263,556.988708 
	C1793.912231,554.888184 1787.726929,551.189026 1780.960083,549.084717 
	C1770.621460,545.869690 1760.966187,540.980042 1750.646851,537.640137 
	C1736.099976,532.931946 1722.262085,525.967468 1707.634521,521.595581 
	C1696.810791,518.360535 1686.746948,513.120056 1675.582520,510.794678 
	C1668.537354,509.327301 1661.962402,505.736053 1655.024902,503.586884 
	C1645.000977,500.481598 1635.312622,496.140015 1625.272583,493.529358 
	C1615.809692,491.068817 1607.070679,486.677216 1597.705688,484.560974 
	C1588.917114,482.574951 1580.939819,478.252289 1572.361084,476.485657 
	C1562.242798,474.401978 1553.207031,469.380096 1543.305786,467.318817 
	C1530.430176,464.638306 1518.505615,459.193390 1505.862671,455.839355 
	C1489.500854,451.498749 1473.613037,445.387146 1457.286255,440.891541 
	C1447.304199,438.142944 1437.780640,434.096863 1427.827637,431.453125 
	C1407.686768,426.103210 1387.998657,419.254639 1367.945435,413.696930 
	C1357.646118,410.842468 1347.741211,406.657196 1337.386230,404.380035 
	C1321.097412,400.797974 1305.585938,394.667511 1289.382935,390.873596 
	C1283.596191,389.518616 1278.177979,386.681580 1272.165649,385.940918 
	C1270.603394,385.748413 1270.293823,384.548645 1269.951294,383.109131 
	C1265.562500,364.656128 1258.200073,347.273468 1251.151123,329.732880 
	C1247.427734,320.467255 1243.381714,311.358002 1238.889038,302.520935 
	C1234.351929,293.596497 1230.220947,284.458252 1225.271240,275.692383 
	C1221.153931,268.400604 1217.185059,260.872955 1212.856934,253.739288 
	C1208.514404,246.581894 1204.577515,239.074615 1199.203613,232.453384 
	C1194.951782,227.214676 1191.334839,221.376495 1187.583496,215.746750 
	C1182.397095,207.963394 1176.527100,200.767609 1170.859741,193.390442 
	C1164.692383,185.362335 1157.977539,177.812988 1151.239746,170.243607 
	C1140.073486,157.699326 1128.433228,145.767349 1116.258423,134.177551 
	C1107.005981,125.369667 1097.139771,117.238503 1087.521973,108.970291 
	C1082.948364,105.038559 1077.507568,101.026268 1072.103638,97.537582 
	C1065.707886,93.408615 1059.183350,89.119682 1053.096191,84.415283 
	C1047.688721,80.236252 1041.914185,76.557495 1036.093872,73.221962 
	C1023.491699,65.999855 1010.751587,58.992859 997.637146,52.624092 
	C985.974976,46.960590 974.154846,41.660461 962.172119,36.887249 
	C943.624146,29.498821 924.589478,23.063368 905.201599,18.470415 
	C891.202271,15.153980 877.290955,10.730420 862.958801,9.275091 
	C851.881409,8.150269 841.002747,5.825275 829.910217,4.915543 
	C823.057678,4.353549 816.297791,2.759482 809.356201,2.902889 
	C808.685547,2.916743 807.998047,2.115221 807.659180,1.346098 
	C1220.073242,1.000000 1632.146362,1.007223 2044.219604,0.894024 
	C2048.207275,0.892929 2049.117432,1.596810 2049.115234,5.717553 
	C2048.985596,233.165863 2049.000000,460.614288 2049.000000,688.531372 
z"/>
<path fill="#000000" opacity="1.000000" stroke="none" 
	d="
M702.531372,1.000000 
	C703.523804,3.809555 701.328186,2.879718 700.113159,2.968090 
	C683.633911,4.166702 667.330078,7.069989 650.937500,8.608143 
	C633.774780,10.218561 617.418335,15.115979 600.588257,17.736464 
	C590.068665,19.374386 580.282043,23.172493 570.034668,25.436253 
	C559.265076,27.815382 549.200562,32.444187 538.697876,35.331615 
	C527.860901,38.310947 517.828369,42.972172 507.530884,47.027050 
	C496.461365,51.385918 485.747070,56.690136 475.030548,61.950531 
	C468.002045,65.400597 461.051788,69.188820 454.160400,72.815834 
	C446.534363,76.829514 438.878387,81.202545 431.888275,86.505646 
	C427.475922,89.853043 422.515839,92.467751 417.937897,95.609901 
	C409.773132,101.213898 401.809631,107.090416 394.135132,113.366943 
	C379.158264,125.615677 364.452698,138.191528 351.285797,152.377472 
	C343.571014,160.689316 336.033020,169.188812 328.857208,178.023193 
	C321.364532,187.247742 314.163452,196.670822 307.283813,206.331543 
	C302.039825,213.695419 296.991516,221.254074 292.535461,229.111298 
	C284.836121,242.687225 276.628571,256.128143 270.621796,270.458771 
	C266.361908,280.621704 262.211517,290.992584 258.379883,301.405762 
	C252.319519,317.875916 248.868591,334.929199 244.414703,351.730194 
	C242.022995,360.752289 241.858093,370.423798 239.996674,379.699463 
	C238.757446,385.874695 237.504242,392.047089 236.087067,398.583405 
	C233.831177,404.157562 228.447266,404.165100 224.345886,405.607574 
	C220.308289,407.027618 216.178558,408.244843 212.142059,409.795288 
	C192.778259,417.233093 173.287674,424.316833 154.089478,432.214539 
	C140.289734,437.891449 126.533928,443.645416 112.795349,449.467010 
	C97.656265,455.882141 82.679825,462.681427 68.177208,470.300964 
	C54.721886,477.370270 41.144123,484.387512 28.781746,493.501953 
	C20.737635,499.432678 12.814277,505.281586 6.862240,513.443420 
	C5.623619,515.141846 4.272836,517.059021 1.302918,516.227905 
	C1.000000,345.894501 1.020475,175.788971 0.880239,5.683580 
	C0.876783,1.492076 1.895533,0.896268 5.813154,0.898189 
	C237.896301,1.012018 469.979492,1.000000 702.531372,1.000000 
z"/>
<path fill="#FC9301" opacity="1.000000" stroke="none" 
	d="
M1232.741211,1494.852783 
	C1234.941528,1508.798218 1232.961304,1522.635010 1234.185425,1536.300903 
	C1235.331299,1549.093872 1233.947388,1561.898926 1235.181030,1574.577637 
	C1236.328735,1586.372559 1234.960083,1598.181763 1236.188354,1609.854370 
	C1237.237305,1619.822388 1236.365967,1629.746582 1237.052490,1639.651367 
	C1238.250000,1656.927246 1238.922607,1674.239746 1240.234619,1691.492920 
	C1240.878296,1699.957031 1241.079956,1708.379883 1240.888428,1716.790283 
	C1240.570923,1730.750366 1242.510620,1744.626465 1241.984619,1758.568481 
	C1241.547363,1770.159180 1241.276123,1781.761353 1240.811646,1793.340454 
	C1240.260376,1807.084595 1234.008057,1818.727173 1225.295166,1829.390503 
	C1214.091064,1843.102783 1200.541504,1854.121948 1186.604614,1864.692627 
	C1179.955933,1869.735352 1172.375854,1873.545166 1165.248169,1877.962646 
	C1156.405518,1883.442871 1146.895508,1887.815186 1137.325073,1891.518799 
	C1127.448486,1895.340942 1117.527344,1899.592529 1106.972656,1901.501099 
	C1097.677124,1903.182373 1088.268311,1904.259644 1079.004883,1906.087402 
	C1072.490479,1907.372803 1065.653442,1906.579712 1059.694092,1909.637695 
	C1034.645752,1910.000000 1009.291565,1910.000000 983.468628,1910.000000 
	C982.930420,1906.153320 979.243347,1907.553589 977.811340,1907.286377 
	C965.535645,1904.994995 954.060547,1900.345337 944.713440,1892.518066 
	C936.101074,1885.305786 931.022278,1874.886353 929.134827,1863.626343 
	C926.833984,1849.899902 927.309875,1836.216187 931.944946,1822.850220 
	C937.214661,1807.654175 947.168457,1797.751221 962.640625,1792.527466 
	C979.377686,1786.876587 996.902893,1785.274658 1013.875793,1780.994507 
	C1020.787903,1779.251587 1027.609009,1776.883667 1034.626099,1775.877808 
	C1047.872559,1773.978760 1060.401733,1769.377808 1073.045776,1765.594482 
	C1086.587036,1761.542480 1100.241455,1756.665771 1111.648315,1747.646118 
	C1114.931641,1745.049805 1116.003662,1740.819580 1116.931885,1736.924805 
	C1119.283203,1727.058838 1120.228149,1717.003296 1121.156372,1706.885498 
	C1123.923462,1676.725098 1123.156738,1646.517212 1122.733276,1616.345215 
	C1122.570923,1604.773926 1122.670898,1593.136841 1121.905151,1581.575928 
	C1120.910767,1566.563232 1120.684082,1551.523438 1119.811279,1536.523682 
	C1119.218750,1526.339600 1119.211670,1516.103149 1117.941162,1505.504395 
	C1122.464478,1503.200439 1127.426392,1503.379395 1132.107788,1503.222046 
	C1155.314453,1502.442261 1178.371338,1499.920288 1201.465332,1497.858887 
	C1210.199585,1497.079468 1218.868652,1495.562256 1227.562378,1494.344727 
	C1229.218872,1494.112793 1230.847412,1493.782715 1232.741211,1494.852783 
z"/>
<path fill="#FA9100" opacity="1.000000" stroke="none" 
	d="
M1.000000,516.467590 
	C4.860852,514.361450 6.261885,510.423523 8.742467,507.529724 
	C13.707178,501.737946 19.372606,496.847046 25.930079,493.026062 
	C27.575565,492.067291 28.498817,490.417328 30.040583,489.518524 
	C38.396805,484.647125 46.383602,479.179718 55.109657,474.891663 
	C64.528671,470.263031 73.328026,464.259094 82.975632,460.243713 
	C91.783264,456.577972 100.017044,451.668823 109.198448,448.772614 
	C114.723923,447.029663 119.613693,443.275818 125.137161,441.521210 
	C134.381302,438.584717 142.473373,433.020630 152.047714,430.757385 
	C157.795288,429.398712 163.018845,425.951355 168.615265,423.799957 
	C182.615585,418.417755 196.845001,413.601532 210.683731,407.840546 
	C218.730301,404.490845 227.447357,403.152557 235.541382,398.978699 
	C236.748779,398.953552 237.713104,399.243622 238.392410,398.925415 
	C246.149628,395.291077 249.869171,400.839905 253.786301,405.703156 
	C265.261353,419.949890 272.212677,436.393982 276.984711,453.883209 
	C282.573730,474.366699 284.981903,495.218262 285.111755,516.448975 
	C285.265656,541.613159 284.895508,566.684570 277.938812,591.120239 
	C272.791809,609.199280 265.937744,626.436707 251.791687,639.685791 
	C249.494232,641.837585 246.924240,643.698425 244.190018,645.871887 
	C226.796799,640.670715 209.666595,635.375916 192.598404,629.888123 
	C175.668732,624.444763 158.874298,618.640076 142.197479,612.417114 
	C133.713486,609.251343 125.479446,605.360901 116.892136,602.680176 
	C109.373680,600.333069 102.605614,596.526917 95.329185,593.832642 
	C79.087334,587.818726 63.778057,579.818542 48.550907,571.722717 
	C38.506611,566.382446 28.868944,560.189026 19.843567,553.219910 
	C12.423577,547.490417 6.783212,540.031250 1.250731,532.668213 
	C1.000000,527.645081 1.000000,522.290100 1.000000,516.467590 
z"/>
<path fill="#FC9301" opacity="1.000000" stroke="none" 
	d="
M891.276978,1067.734375 
	C919.454773,1088.518555 947.977844,1108.121826 977.914185,1125.653687 
	C1025.325928,1153.420044 1075.464600,1173.702271 1129.909302,1182.791504 
	C1157.830322,1187.452881 1185.977783,1188.308105 1214.031250,1186.688599 
	C1251.359619,1184.533325 1287.832642,1176.923340 1323.404053,1165.103882 
	C1348.416382,1156.792847 1372.971680,1147.462280 1396.396729,1135.308716 
	C1420.450562,1122.828857 1442.574585,1107.581055 1462.939819,1089.680176 
	C1486.502930,1068.968506 1506.692627,1045.453491 1522.890259,1018.593018 
	C1535.704468,997.343079 1544.865723,974.721069 1550.309204,950.326538 
	C1555.106567,928.827698 1546.140503,914.973328 1529.443848,903.560425 
	C1510.483887,890.600708 1489.919312,880.860901 1468.816650,872.122620 
	C1414.703491,849.715088 1358.802979,832.666016 1302.482056,816.909973 
	C1267.685547,807.175537 1232.777466,797.835083 1198.033569,787.918152 
	C1179.053223,782.500671 1160.854126,775.096069 1145.438843,762.257629 
	C1135.589233,754.054504 1128.969360,744.148560 1131.706055,730.601013 
	C1134.852417,715.025940 1143.650879,704.204041 1159.816772,701.170227 
	C1175.759033,698.178467 1191.638184,700.215088 1207.382812,703.337341 
	C1260.138184,713.798889 1312.399292,726.446350 1364.699219,738.923706 
	C1412.310181,750.282227 1459.987549,761.367249 1507.530396,773.003052 
	C1535.518555,779.852966 1563.247559,787.672424 1589.836304,799.074524 
	C1612.084839,808.615356 1632.769531,820.626404 1649.559448,838.246338 
	C1668.583862,858.211243 1679.867310,882.243591 1684.021606,909.497437 
	C1687.203247,930.371094 1683.284668,950.623779 1677.565063,970.561768 
	C1667.662354,1005.081543 1651.815796,1036.847046 1632.691895,1067.146118 
	C1615.768433,1093.958984 1596.760010,1119.059082 1575.306641,1142.437988 
	C1544.409668,1176.108032 1510.040771,1205.228271 1468.604492,1225.072876 
	C1437.601196,1239.921021 1405.203247,1251.124512 1371.992920,1260.091187 
	C1343.816162,1267.698975 1315.249756,1273.201416 1286.329468,1276.708130 
	C1271.175293,1278.545532 1255.922852,1279.705933 1240.608887,1280.223267 
	C1229.632568,1280.594116 1218.653442,1281.260742 1207.685425,1280.916260 
	C1162.642456,1279.502441 1118.281006,1273.796143 1074.877930,1260.960815 
	C1043.267944,1251.612915 1013.314270,1238.441650 983.674561,1224.343384 
	C960.051514,1213.107178 936.952820,1200.860474 914.647217,1187.211182 
	C884.032776,1168.477539 854.874023,1147.779907 830.584290,1121.006226 
	C821.227844,1110.692993 813.406494,1099.307739 809.458557,1085.723999 
	C803.443726,1065.028442 816.775879,1043.060303 837.756897,1039.695068 
	C846.145020,1038.349731 853.880798,1041.632446 860.756653,1046.265259 
	C870.971313,1053.147461 880.933838,1060.404053 891.276978,1067.734375 
z"/>
<path fill="#FC9301" opacity="1.000000" stroke="none" 
	d="
M947.721313,1500.864868 
	C949.323792,1515.842529 948.240906,1530.657959 949.150696,1545.368652 
	C950.898682,1573.631348 949.933899,1601.892334 949.744812,1630.137451 
	C949.662292,1642.453857 949.489563,1654.942017 947.839905,1667.187012 
	C946.185486,1679.467529 946.373596,1691.998535 943.034668,1704.048584 
	C940.109253,1714.606079 933.506104,1723.007324 926.320435,1730.804443 
	C920.483887,1737.137329 913.353394,1742.301880 905.835938,1746.433960 
	C895.071167,1752.350708 883.871643,1757.381714 871.402588,1759.088501 
	C862.473145,1760.310669 853.585571,1761.497437 844.573486,1762.129761 
	C830.888000,1763.090088 817.185852,1763.481567 803.513245,1764.281250 
	C794.896118,1764.785400 786.302429,1764.526367 777.714966,1765.008179 
	C759.302490,1766.041138 740.875305,1766.138306 722.442505,1766.003418 
	C711.565674,1765.923828 701.464661,1763.195557 691.157227,1759.503784 
	C682.024170,1756.232666 674.654724,1750.828247 667.874023,1744.907104 
	C658.596619,1736.806030 652.510315,1726.004272 650.036072,1713.652466 
	C647.244446,1699.716064 650.256104,1686.563477 654.976257,1673.371826 
	C659.270142,1661.370850 667.170105,1652.467285 676.777649,1645.008667 
	C683.094116,1640.105103 691.104431,1638.253540 699.008728,1637.026367 
	C721.928772,1633.468384 745.035950,1635.768188 768.041382,1634.918701 
	C783.839478,1634.335327 799.690674,1633.645264 815.358337,1631.709473 
	C823.487366,1630.705078 831.757385,1627.315552 835.040710,1618.391602 
	C836.642761,1614.037231 837.257568,1609.274658 837.957642,1604.642090 
	C839.988586,1591.202148 840.509521,1577.650024 839.948059,1564.094482 
	C839.233337,1546.841187 838.316345,1529.600586 836.135193,1512.436401 
	C835.307312,1505.920532 836.283020,1499.246948 835.129578,1492.653198 
	C834.741943,1490.436890 834.421082,1488.171753 833.974731,1485.521851 
	C836.537292,1483.294067 839.214172,1484.814453 841.620850,1485.298706 
	C868.475891,1490.704224 895.616333,1494.241821 922.752197,1497.757080 
	C930.945374,1498.818237 939.227661,1499.261108 947.721313,1500.864868 
z"/>
<path fill="#30302B" opacity="1.000000" stroke="none" 
	d="
M616.104858,438.666931 
	C616.894531,445.052826 616.777954,451.109467 615.947632,457.581665 
	C615.894836,458.584503 615.802368,459.128723 615.281494,459.850647 
	C613.409668,483.457947 602.906128,502.633148 586.678406,518.949158 
	C577.456299,528.221375 566.500122,534.934509 554.139038,539.227112 
	C542.130676,543.397217 529.815430,545.201416 516.671021,543.292358 
	C515.671448,543.127869 515.121643,543.023010 514.289429,542.919373 
	C503.854767,542.237000 494.884430,537.967163 486.545776,532.759644 
	C468.093201,521.235962 455.417511,505.123993 449.584198,483.860992 
	C448.577972,480.193237 447.728149,476.537354 447.086182,472.397858 
	C447.028534,471.439056 446.972443,470.891754 446.836823,470.077148 
	C444.745514,455.324005 446.044556,441.205688 450.562317,427.240479 
	C458.094177,403.957916 472.158264,385.787903 493.145691,373.471222 
	C512.912048,361.871124 534.008728,358.517731 556.609802,364.852875 
	C577.574219,370.729187 593.131470,383.062103 604.129639,401.467224 
	C610.300293,411.793732 614.088928,423.003784 615.077637,435.500458 
	C615.720337,436.610962 615.993103,437.433929 616.104858,438.666931 
z"/>
<path fill="#9F7A15" opacity="1.000000" stroke="none" 
	d="
M616.296631,438.758606 
	C615.776733,438.193756 615.400879,437.392944 615.064453,436.257904 
	C616.178833,436.466248 616.938232,437.171173 616.296631,438.758606 
z"/>
<path fill="#9F7A15" opacity="1.000000" stroke="none" 
	d="
M615.333862,459.963135 
	C615.151062,459.483795 615.192261,458.887939 615.505493,458.145203 
	C616.740601,458.737579 616.470520,459.330292 615.333862,459.963135 
z"/>
<path fill="#725C1E" opacity="1.000000" stroke="none" 
	d="
M446.688049,470.076721 
	C447.513123,470.266968 447.693817,470.895416 447.230133,471.832153 
	C446.911682,471.440979 446.744568,470.894897 446.688049,470.076721 
z"/>
<path fill="#78611C" opacity="1.000000" stroke="none" 
	d="
M514.257690,543.049988 
	C514.644592,542.179138 515.303101,542.405334 516.097473,543.006592 
	C515.652893,543.195923 515.077942,543.206482 514.257690,543.049988 
z"/>
</svg>